<mxfile host="Electron" agent="Mozilla/5.0 (Windows NT 10.0; Win64; x64) AppleWebKit/537.36 (KHTML, like Gecko) draw.io/24.7.8 Chrome/128.0.6613.36 Electron/32.0.1 Safari/537.36" version="24.7.8">
  <diagram name="페이지-1" id="gEjbSBtVTCQcQ6EyD5Wo">
    <mxGraphModel dx="1036" dy="1775" grid="1" gridSize="10" guides="1" tooltips="1" connect="1" arrows="1" fold="1" page="1" pageScale="1" pageWidth="827" pageHeight="1169" math="0" shadow="0">
      <root>
        <mxCell id="0" />
        <mxCell id="1" parent="0" />
        <mxCell id="YralpBAGlCa2LgMJEP6P-31" value="public Subnet" style="sketch=0;outlineConnect=0;gradientColor=none;html=1;whiteSpace=wrap;fontSize=12;fontStyle=0;shape=mxgraph.aws4.group;grIcon=mxgraph.aws4.group_subnet;strokeColor=#879196;fillColor=none;verticalAlign=top;align=left;spacingLeft=30;fontColor=#879196;dashed=0;" parent="1" vertex="1">
          <mxGeometry x="50" y="50" width="719" height="200" as="geometry" />
        </mxCell>
        <mxCell id="YralpBAGlCa2LgMJEP6P-1" value="Seoul VPC" style="sketch=0;outlineConnect=0;gradientColor=none;html=1;whiteSpace=wrap;fontSize=12;fontStyle=0;shape=mxgraph.aws4.group;grIcon=mxgraph.aws4.group_vpc;strokeColor=#879196;fillColor=none;verticalAlign=top;align=left;spacingLeft=30;fontColor=#879196;dashed=0;" parent="1" vertex="1">
          <mxGeometry x="29" y="20" width="770" height="490" as="geometry" />
        </mxCell>
        <mxCell id="YralpBAGlCa2LgMJEP6P-32" value="private Subnet" style="sketch=0;outlineConnect=0;gradientColor=none;html=1;whiteSpace=wrap;fontSize=12;fontStyle=0;shape=mxgraph.aws4.group;grIcon=mxgraph.aws4.group_subnet;strokeColor=#879196;fillColor=none;verticalAlign=top;align=left;spacingLeft=30;fontColor=#879196;dashed=0;" parent="1" vertex="1">
          <mxGeometry x="50" y="280" width="719" height="210" as="geometry" />
        </mxCell>
        <mxCell id="YralpBAGlCa2LgMJEP6P-4" style="edgeStyle=orthogonalEdgeStyle;rounded=0;orthogonalLoop=1;jettySize=auto;html=1;exitX=1;exitY=0.5;exitDx=0;exitDy=0;exitPerimeter=0;" parent="1" source="YralpBAGlCa2LgMJEP6P-5" target="YralpBAGlCa2LgMJEP6P-3" edge="1">
          <mxGeometry relative="1" as="geometry" />
        </mxCell>
        <mxCell id="YralpBAGlCa2LgMJEP6P-2" value="" style="outlineConnect=0;dashed=0;verticalLabelPosition=bottom;verticalAlign=top;align=center;html=1;shape=mxgraph.aws3.internet_gateway;fillColor=#F58534;gradientColor=none;" parent="1" vertex="1">
          <mxGeometry x="360" y="-70" width="69" height="72" as="geometry" />
        </mxCell>
        <mxCell id="YralpBAGlCa2LgMJEP6P-19" value="" style="edgeStyle=orthogonalEdgeStyle;rounded=0;orthogonalLoop=1;jettySize=auto;html=1;" parent="1" source="YralpBAGlCa2LgMJEP6P-21" target="YralpBAGlCa2LgMJEP6P-7" edge="1">
          <mxGeometry relative="1" as="geometry" />
        </mxCell>
        <mxCell id="YralpBAGlCa2LgMJEP6P-3" value="Web Ec2-2" style="points=[[0,0],[0.25,0],[0.5,0],[0.75,0],[1,0],[1,0.25],[1,0.5],[1,0.75],[1,1],[0.75,1],[0.5,1],[0.25,1],[0,1],[0,0.75],[0,0.5],[0,0.25]];outlineConnect=0;gradientColor=none;html=1;whiteSpace=wrap;fontSize=12;fontStyle=0;container=0;pointerEvents=0;collapsible=0;recursiveResize=0;shape=mxgraph.aws4.group;grIcon=mxgraph.aws4.group_ec2_instance_contents;strokeColor=#D86613;fillColor=none;verticalAlign=top;align=left;spacingLeft=30;fontColor=#D86613;dashed=0;" parent="1" vertex="1">
          <mxGeometry x="560" y="80" width="190" height="160" as="geometry" />
        </mxCell>
        <mxCell id="YralpBAGlCa2LgMJEP6P-12" value="" style="edgeStyle=orthogonalEdgeStyle;rounded=0;orthogonalLoop=1;jettySize=auto;html=1;entryX=1;entryY=0.5;entryDx=0;entryDy=0;" parent="1" source="YralpBAGlCa2LgMJEP6P-7" target="YralpBAGlCa2LgMJEP6P-8" edge="1">
          <mxGeometry relative="1" as="geometry">
            <mxPoint x="404.5" y="368" as="targetPoint" />
          </mxGeometry>
        </mxCell>
        <mxCell id="YralpBAGlCa2LgMJEP6P-17" style="edgeStyle=orthogonalEdgeStyle;rounded=0;orthogonalLoop=1;jettySize=auto;html=1;entryX=0;entryY=0.5;entryDx=0;entryDy=0;" parent="1" source="YralpBAGlCa2LgMJEP6P-7" target="YralpBAGlCa2LgMJEP6P-9" edge="1">
          <mxGeometry relative="1" as="geometry" />
        </mxCell>
        <mxCell id="YralpBAGlCa2LgMJEP6P-7" value="" style="sketch=0;outlineConnect=0;fontColor=#232F3E;gradientColor=none;fillColor=#8C4FFF;strokeColor=none;dashed=0;verticalLabelPosition=bottom;verticalAlign=top;align=center;html=1;fontSize=12;fontStyle=0;aspect=fixed;pointerEvents=1;shape=mxgraph.aws4.application_load_balancer;" parent="1" vertex="1">
          <mxGeometry x="370" y="260" width="74.5" height="74.5" as="geometry" />
        </mxCell>
        <mxCell id="YralpBAGlCa2LgMJEP6P-28" value="" style="edgeStyle=orthogonalEdgeStyle;rounded=0;orthogonalLoop=1;jettySize=auto;html=1;" parent="1" source="YralpBAGlCa2LgMJEP6P-8" target="YralpBAGlCa2LgMJEP6P-25" edge="1">
          <mxGeometry relative="1" as="geometry">
            <mxPoint x="370" y="590" as="targetPoint" />
            <Array as="points">
              <mxPoint x="170" y="610" />
            </Array>
          </mxGeometry>
        </mxCell>
        <mxCell id="YralpBAGlCa2LgMJEP6P-8" value="Back-end Server1" style="points=[[0,0],[0.25,0],[0.5,0],[0.75,0],[1,0],[1,0.25],[1,0.5],[1,0.75],[1,1],[0.75,1],[0.5,1],[0.25,1],[0,1],[0,0.75],[0,0.5],[0,0.25]];outlineConnect=0;gradientColor=none;html=1;whiteSpace=wrap;fontSize=12;fontStyle=0;container=1;pointerEvents=0;collapsible=0;recursiveResize=0;shape=mxgraph.aws4.group;grIcon=mxgraph.aws4.group_ec2_instance_contents;strokeColor=#D86613;fillColor=none;verticalAlign=top;align=left;spacingLeft=30;fontColor=#D86613;dashed=0;" parent="1" vertex="1">
          <mxGeometry x="90" y="310" width="170" height="171" as="geometry" />
        </mxCell>
        <mxCell id="YralpBAGlCa2LgMJEP6P-30" value="" style="edgeStyle=orthogonalEdgeStyle;rounded=0;orthogonalLoop=1;jettySize=auto;html=1;entryX=1;entryY=0.5;entryDx=0;entryDy=0;entryPerimeter=0;" parent="1" source="YralpBAGlCa2LgMJEP6P-9" target="YralpBAGlCa2LgMJEP6P-25" edge="1">
          <mxGeometry relative="1" as="geometry">
            <mxPoint x="655" y="585.5" as="targetPoint" />
            <Array as="points">
              <mxPoint x="655" y="611" />
              <mxPoint x="502" y="611" />
            </Array>
          </mxGeometry>
        </mxCell>
        <mxCell id="YralpBAGlCa2LgMJEP6P-9" value="Back-end Server2" style="points=[[0,0],[0.25,0],[0.5,0],[0.75,0],[1,0],[1,0.25],[1,0.5],[1,0.75],[1,1],[0.75,1],[0.5,1],[0.25,1],[0,1],[0,0.75],[0,0.5],[0,0.25]];outlineConnect=0;gradientColor=none;html=1;whiteSpace=wrap;fontSize=12;fontStyle=0;container=1;pointerEvents=0;collapsible=0;recursiveResize=0;shape=mxgraph.aws4.group;grIcon=mxgraph.aws4.group_ec2_instance_contents;strokeColor=#D86613;fillColor=none;verticalAlign=top;align=left;spacingLeft=30;fontColor=#D86613;dashed=0;" parent="1" vertex="1">
          <mxGeometry x="560" y="310" width="190" height="171" as="geometry" />
        </mxCell>
        <mxCell id="YralpBAGlCa2LgMJEP6P-20" value="" style="edgeStyle=orthogonalEdgeStyle;rounded=0;orthogonalLoop=1;jettySize=auto;html=1;exitX=1;exitY=0.5;exitDx=0;exitDy=0;exitPerimeter=0;" parent="1" source="YralpBAGlCa2LgMJEP6P-2" target="YralpBAGlCa2LgMJEP6P-5" edge="1">
          <mxGeometry relative="1" as="geometry">
            <mxPoint x="429" y="-34" as="sourcePoint" />
            <mxPoint x="655" y="60" as="targetPoint" />
          </mxGeometry>
        </mxCell>
        <mxCell id="YralpBAGlCa2LgMJEP6P-5" value="&lt;font style=&quot;font-size: 15px;&quot;&gt;1&lt;/font&gt;" style="ellipse;whiteSpace=wrap;html=1;" parent="1" vertex="1">
          <mxGeometry x="520" y="-49" width="30" height="30" as="geometry" />
        </mxCell>
        <mxCell id="YralpBAGlCa2LgMJEP6P-22" value="" style="edgeStyle=orthogonalEdgeStyle;rounded=0;orthogonalLoop=1;jettySize=auto;html=1;" parent="1" source="YralpBAGlCa2LgMJEP6P-3" target="YralpBAGlCa2LgMJEP6P-21" edge="1">
          <mxGeometry relative="1" as="geometry">
            <mxPoint x="560" y="150" as="sourcePoint" />
            <mxPoint x="407" y="260" as="targetPoint" />
          </mxGeometry>
        </mxCell>
        <mxCell id="YralpBAGlCa2LgMJEP6P-21" value="&lt;font style=&quot;font-size: 15px;&quot;&gt;2&lt;/font&gt;" style="ellipse;whiteSpace=wrap;html=1;" parent="1" vertex="1">
          <mxGeometry x="460" y="135" width="30" height="30" as="geometry" />
        </mxCell>
        <mxCell id="YralpBAGlCa2LgMJEP6P-23" value="&lt;font style=&quot;font-size: 15px;&quot;&gt;3&lt;/font&gt;" style="ellipse;whiteSpace=wrap;html=1;" parent="1" vertex="1">
          <mxGeometry x="280" y="280" width="30" height="30" as="geometry" />
        </mxCell>
        <mxCell id="YralpBAGlCa2LgMJEP6P-24" value="&lt;font style=&quot;font-size: 15px;&quot;&gt;3&lt;/font&gt;" style="ellipse;whiteSpace=wrap;html=1;" parent="1" vertex="1">
          <mxGeometry x="500" y="280" width="30" height="30" as="geometry" />
        </mxCell>
        <mxCell id="YralpBAGlCa2LgMJEP6P-25" value="" style="outlineConnect=0;dashed=0;verticalLabelPosition=bottom;verticalAlign=top;align=center;html=1;shape=mxgraph.aws3.rds;fillColor=#2E73B8;gradientColor=none;" parent="1" vertex="1">
          <mxGeometry x="370" y="570" width="72" height="81" as="geometry" />
        </mxCell>
        <mxCell id="YralpBAGlCa2LgMJEP6P-35" value="" style="sketch=0;outlineConnect=0;fontColor=#232F3E;gradientColor=none;fillColor=#7AA116;strokeColor=none;dashed=0;verticalLabelPosition=bottom;verticalAlign=top;align=center;html=1;fontSize=12;fontStyle=0;aspect=fixed;pointerEvents=1;shape=mxgraph.aws4.bucket;" parent="1" vertex="1">
          <mxGeometry x="287.5" y="-242.5" width="75" height="78" as="geometry" />
        </mxCell>
        <mxCell id="YralpBAGlCa2LgMJEP6P-37" value="" style="edgeStyle=orthogonalEdgeStyle;rounded=0;orthogonalLoop=1;jettySize=auto;html=1;" parent="1" source="YralpBAGlCa2LgMJEP6P-36" target="YralpBAGlCa2LgMJEP6P-35" edge="1">
          <mxGeometry relative="1" as="geometry" />
        </mxCell>
        <mxCell id="YralpBAGlCa2LgMJEP6P-36" value="" style="outlineConnect=0;dashed=0;verticalLabelPosition=bottom;verticalAlign=top;align=center;html=1;shape=mxgraph.aws3.cloudfront;fillColor=#F58536;gradientColor=none;" parent="1" vertex="1">
          <mxGeometry x="423.5" y="-250" width="76.5" height="93" as="geometry" />
        </mxCell>
        <mxCell id="ZmNrQ0h_bJ6r8ZYNAnl4-1" value="Web Ec2 -1" style="points=[[0,0],[0.25,0],[0.5,0],[0.75,0],[1,0],[1,0.25],[1,0.5],[1,0.75],[1,1],[0.75,1],[0.5,1],[0.25,1],[0,1],[0,0.75],[0,0.5],[0,0.25]];outlineConnect=0;gradientColor=none;html=1;whiteSpace=wrap;fontSize=12;fontStyle=0;container=1;pointerEvents=0;collapsible=0;recursiveResize=0;shape=mxgraph.aws4.group;grIcon=mxgraph.aws4.group_ec2_instance_contents;strokeColor=#D86613;fillColor=none;verticalAlign=top;align=left;spacingLeft=30;fontColor=#D86613;dashed=0;" vertex="1" parent="1">
          <mxGeometry x="80" y="80" width="180" height="160" as="geometry" />
        </mxCell>
        <mxCell id="ZmNrQ0h_bJ6r8ZYNAnl4-4" value="HTTPD" style="sketch=0;outlineConnect=0;fontColor=#232F3E;gradientColor=none;fillColor=#ED7100;strokeColor=none;dashed=0;verticalLabelPosition=bottom;verticalAlign=top;align=center;html=1;fontSize=12;fontStyle=0;aspect=fixed;pointerEvents=1;shape=mxgraph.aws4.instance2;" vertex="1" parent="1">
          <mxGeometry x="610" y="113.5" width="93" height="93" as="geometry" />
        </mxCell>
      </root>
    </mxGraphModel>
  </diagram>
</mxfile>
